Coordinates
version=1
nRows=20
nColumns=34
inDegrees=yes

Units are S.I. units (second, meters, Newtons, ...)
If the header above contains a line with 'inDegrees', this indicates whether rotational values are in degrees (yes) or radians (no).

endheader
time	pelvis_tilt	pelvis_list	pelvis_rotation	pelvis_tx	pelvis_ty	pelvis_tz	hip_flexion_r	hip_adduction_r	hip_rotation_r	knee_angle_r	ankle_angle_r	subtalar_angle_r	mtp_angle_r	hip_flexion_l	hip_adduction_l	hip_rotation_l	knee_angle_l	ankle_angle_l	subtalar_angle_l	mtp_angle_l	lumbar_extension	lumbar_bending	lumbar_rotation	arm_flex_r	arm_add_r	arm_rot_r	elbow_flex_r	pro_sup_r	arm_flex_l	arm_add_l	arm_rot_l	elbow_flex_l	pro_sup_l
      2.08333330	     -5.34397365	      2.28402275	     -2.36610737	      1.81281717	      0.87545701	     -0.19080652	      2.75542517	     -4.71990901	      3.57510859	      0.00000000	      1.26821701	    -22.55148354	      0.00000000	      4.20710181	     -3.30975705	     -8.12090461	      2.55228163	      1.99375933	     -2.53185537	      0.00000000	     -5.47035606	     -0.12299867	      0.63281812	     12.95764933	     -7.64697846	     43.13183876	     88.77340818	     84.46374531	      9.89081886	     -6.16725050	     31.05432749	     81.24444050	     80.20040708
      2.10000000	     -5.33339565	      2.30777387	     -2.35852019	      1.81327968	      0.87477993	     -0.19133725	      2.70982900	     -4.78343573	      3.59931768	      0.00000000	      1.26997678	    -22.57240469	      0.00000000	      4.13517005	     -3.24419957	     -8.14935467	      2.51581048	      2.04391921	     -2.55036987	      0.00000000	     -5.35196256	      0.01624153	      0.56232224	     12.84960647	     -7.57650221	     43.20959871	     88.78433232	     84.45997239	     10.09227407	     -6.14578681	     31.00529214	     81.31793053	     80.21403942
      2.11666670	     -5.34752428	      2.31172492	     -2.33565429	      1.81382404	      0.87458486	     -0.19217080	      2.68087109	     -4.83383759	      3.64438483	      0.00000000	      1.29237302	    -22.61219248	      0.00000000	      4.04768380	     -3.18684472	     -8.17655034	      2.38619838	      2.14590668	     -2.58225779	      0.00000000	     -5.23115163	      0.14369388	      0.48616639	     12.73005475	     -7.50319952	     43.31200812	     88.79737409	     84.45703345	     10.35165666	     -6.13449932	     30.94776594	     81.42782235	     80.23008743
      2.13333330	     -5.36092628	      2.31356329	     -2.39006802	      1.81433485	      0.87507638	     -0.19296470	      2.67889003	     -4.88301700	      3.68403863	      0.00000000	      1.32665497	    -22.66923396	      0.00000000	      3.93886450	     -3.13079048	     -8.15164121	      2.24224653	      2.23885071	     -2.58549606	      0.00000000	     -5.12364584	      0.25327403	      0.42374385	     12.65217255	     -7.45378422	     43.40145202	     88.81599534	     84.45436767	     10.53730962	     -6.08451594	     30.92963326	     81.55117395	     80.24773047
      2.15000000	     -5.37049426	      2.32610935	     -2.39222078	      1.81473409	      0.87533518	     -0.19385434	      2.66248290	     -4.94965729	      3.76142593	      0.00000000	      1.36323822	    -22.73483394	      0.00000000	      3.80533472	     -3.04997304	     -8.11424714	      2.04439667	      2.32372138	     -2.57556429	      0.00000000	     -4.99836819	      0.38063812	      0.37769137	     12.60958616	     -7.39840939	     43.50028781	     88.84692389	     84.45138811	     10.67279105	     -5.94089014	     30.96409603	     81.73061059	     80.27166037
      2.16666670	     -5.17039271	      2.36750885	     -2.60295485	      1.81490448	      0.87529142	     -0.19459965	      2.45040680	     -5.03273039	      4.32802319	      0.00000000	      1.10040435	    -23.53321922	      0.00000000	      3.18926367	     -2.91669901	     -8.21306376	      1.39929066	      2.17117946	     -2.44816243	      0.00000000	     -5.38709846	      0.33933452	      0.39125753	     12.89979942	     -7.54966571	     44.25980190	     89.09440795	     84.35068135	     10.61885686	     -6.10318708	     31.31685180	     82.97064949	     80.63340043
      2.18333330	     -5.17889386	      2.37675189	     -2.71656002	      1.81470591	      0.87544417	     -0.19602899	      2.48331971	     -5.09575890	      4.31798535	      0.00000000	      1.09507140	    -23.55613012	      0.00000000	      3.13910880	     -2.85298079	     -8.17326432	      1.36784656	      2.19668654	     -2.43789059	      0.00000000	     -5.34913456	      0.45186017	      0.29616211	     12.89243261	     -7.54006102	     44.26693780	     89.08646543	     84.34660019	     10.69622403	     -5.96931803	     31.34283075	     83.03193057	     80.64446067
      2.20000000	     -5.24479171	      2.38423600	     -2.70886740	      1.81468975	      0.87582706	     -0.19760256	      2.55494391	     -5.18505999	      4.33689396	      0.00000000	      1.05367981	    -23.60653085	      0.00000000	      3.05879747	     -2.73735824	     -8.10994685	      1.09001412	      2.26924478	     -2.44938126	      0.00000000	     -5.30890368	      0.62839898	      0.17922290	     12.95804663	     -7.52281805	     44.28296462	     89.02132716	     84.33344132	     10.84210090	     -5.65957257	     31.42297388	     83.20677364	     80.67940913
      2.21666670	     -5.26208137	      2.38489007	     -2.86079797	      1.81475597	      0.87640305	     -0.19794973	      2.62807857	     -5.22835693	      4.31748206	      0.00000000	      1.04822174	    -23.62916405	      0.00000000	      3.00391854	     -2.68868758	     -8.06698014	      1.05076033	      2.26423823	     -2.43814419	      0.00000000	     -5.30278453	      0.68329657	      0.10221682	     12.96281440	     -7.55150059	     44.27781632	     88.99229964	     84.32968276	     10.92155172	     -5.59106136	     31.43521743	     83.25433984	     80.68834894
      2.23333330	     -5.36374176	      2.40873875	     -2.90238199	      1.81497824	      0.87634009	     -0.19825703	      2.76574128	     -5.32762216	      4.36834282	      0.00000000	      1.00203360	    -23.64475736	      0.00000000	      2.93989246	     -2.55252195	     -8.01909944	      0.70931008	      2.26813770	     -2.46821896	      0.00000000	     -5.28376952	      0.80958069	      0.02052595	     13.12940648	     -7.60651126	     44.22716467	     88.89455698	     84.31566573	     11.20120831	     -5.47575618	     31.41837350	     83.40362479	     80.71759002
      2.25000000	     -5.39848776	      2.40496984	     -3.05450710	      1.81536156	      0.87559561	     -0.19842024	      2.84689248	     -5.35398095	      4.36804958	      0.00000000	      0.99962744	    -23.65748792	      0.00000000	      2.88562643	     -2.51049208	     -7.97727989	      0.65003032	      2.25529831	     -2.46823333	      0.00000000	     -5.27429631	      0.84217227	     -0.03699633	     13.17763429	     -7.63696936	     44.20008010	     88.86804111	     84.31116623	     11.33113637	     -5.48449715	     31.38701924	     83.43985382	     80.72567900
      2.26666670	     -5.53312130	      2.40670854	     -3.13539772	      1.81562253	      0.87445517	     -0.19929587	      3.03054344	     -5.40676737	      4.45242696	      0.00000000	      0.99443465	    -23.64604092	      0.00000000	      2.84935108	     -2.40890730	     -7.95643140	      0.32103899	      2.31144928	     -2.53323784	      0.00000000	     -5.24797685	      0.96409532	     -0.11529323	     13.40432360	     -7.69591649	     44.09029686	     88.83660022	     84.30025893	     11.77588425	     -5.61274183	     31.21910332	     83.52235221	     80.73895590
      2.28333330	     -5.62151195	      2.38440808	     -3.29197623	      1.81588843	      0.87385264	     -0.20000952	      3.15953793	     -5.40921795	      4.52814661	      0.00000000	      1.00605861	    -23.64120064	      0.00000000	      2.80305674	     -2.37160175	     -7.90068692	      0.14052287	      2.33214594	     -2.57578054	      0.00000000	     -5.19984801	      1.00977233	     -0.15540843	     13.58995149	     -7.71216666	     44.00367516	     88.84001931	     84.29275403	     12.09202466	     -5.75231164	     31.06925798	     83.57154837	     80.75042458
      2.30000000	     -5.72387646	      2.37001676	     -3.36904348	      1.81614106	      0.87411705	     -0.20095888	      3.28654613	     -5.42666103	      4.62632295	      0.00000000	      1.02813336	    -23.63096111	      0.00000000	      2.81406008	     -2.32261353	     -7.87658711	      0.00000000	      2.35422676	     -2.63545956	      0.00000000	     -5.21531315	      1.08718669	     -0.18249868	     13.76308330	     -7.72060987	     43.92068749	     88.85243530	     84.28672103	     12.37106920	     -5.87840493	     30.91386664	     83.60261399	     80.76031227
      2.31666670	     -5.79202661	      2.36231136	     -3.53902488	      1.81635947	      0.87476517	     -0.20179604	      3.38073217	     -5.44454781	      4.66806456	      0.00000000	      1.04599208	    -23.63011666	      0.00000000	      2.83277962	     -2.29664021	     -7.84442440	      0.00000000	      2.35291186	     -2.66462382	      0.00000000	     -5.23454910	      1.13738421	     -0.24171628	     13.86702096	     -7.72226966	     43.86564741	     88.87133077	     84.28373866	     12.55493571	     -5.90891868	     30.82173110	     83.62784400	     80.76653176
      2.33333330	     -5.90900222	      2.37154634	     -3.68371811	      1.81622856	      0.87526175	     -0.20290495	      3.55023555	     -5.50075633	      4.76228576	      0.00000000	      1.06055415	    -23.60291644	      0.00000000	      2.94281615	     -2.24282999	     -7.84288380	      0.00000000	      2.36605537	     -2.73792762	      0.00000000	     -5.32451953	      1.24806518	     -0.33500860	     14.06875771	     -7.71029677	     43.76986804	     88.91151099	     84.27970018	     12.83130275	     -5.88816455	     30.69922787	     83.67259508	     80.77572514
      2.35000000	     -6.05846215	      2.37788009	     -3.75793509	      1.81607736	      0.87539084	     -0.20410203	      3.73262728	     -5.56319074	      4.92055840	      0.00000000	      1.05151251	    -23.53114495	      0.00000000	      3.11563192	     -2.19346410	     -7.87826007	      0.00093084	      2.36138682	     -2.88858529	      0.00000000	     -5.42658811	      1.34293989	     -0.42788283	     14.38052524	     -7.66076896	     43.64591733	     89.00681196	     84.27725885	     13.03297655	     -5.72651015	     30.61052482	     83.75122243	     80.79740334
      2.36666670	     -6.10448659	      2.38352498	     -3.94995855	      1.81630942	      0.87569586	     -0.20503709	      3.81235887	     -5.61910408	      4.92068661	      0.00000000	      1.05593079	    -23.52783668	      0.00000000	      3.13026189	     -2.15480475	     -7.85771708	      0.03638105	      2.34872585	     -2.91126446	      0.00000000	     -5.46414539	      1.39917462	     -0.52328971	     14.42287832	     -7.68782921	     43.61226534	     89.02317321	     84.27679886	     13.08271677	     -5.63601700	     30.61522869	     83.78073642	     80.80405416
      2.38333330	     -6.30918791	      2.43189967	     -4.08123413	      1.81607761	      0.87579070	     -0.20651511	      4.10522487	     -5.74563631	      5.06946628	      0.00000000	      1.00873329	    -23.37493366	      0.00000000	      3.49520190	     -2.05728530	     -7.90670453	      0.28331321	      2.31530833	     -3.20984581	      0.00000000	     -5.60440752	      1.49914707	     -0.65761019	     14.92091352	     -7.74081013	     43.36825916	     89.24493709	     84.27807898	     13.17787547	     -5.23127095	     30.57452101	     83.96985708	     80.84934390
      2.40000000	     -6.37372854	      2.46359774	     -4.26908521	      1.81626846	      0.87641146	     -0.20771999	      4.21690457	     -5.83813164	      5.05344530	      0.00000000	      1.01439538	    -23.37038827	      0.00000000	      3.54128539	     -1.97073949	     -7.88963836	      0.34983883	      2.31552084	     -3.23986189	      0.00000000	     -5.69995948	      1.60642900	     -0.78314995	     14.93466024	     -7.81085084	     43.32198247	     89.25565204	     84.27756384	     13.21785291	     -5.12894421	     30.58575668	     83.99826227	     80.85648292
